PathFileType	4	(X/Y/Z)	C:/Users/opensim2020/Desktop/walking_exp_matlab/subject06_walking16_straight_04.trc																																																																																																																																																							
DataRate	CameraRate	NumFrames	NumMarkers	Units	OrigDataRate	OrigDataStartFrame	OrigNumFrames																																																																																																																																																			
100	100	7	51	mm	100	4009	352																																																																																																																																																			
Frame#	Time	LFHD			RFHD			LBHD			RBHD			C7			T10			CLAV			STRN			RBAK			LSHO			LUPA			LELB			LFRM			LWRA			LWRB			LFIN			RSHO			RUPA			RELB			RFRM			RWRA			RWRB			RFIN			LASI			RASI			LPSI			RPSI			LTHI			LKNE			LTIB			LANK			LHEE			LTOE			RTHI			RKNE			RTIB			RANK			RHEE			RTOE			*39			*40			*41			*42			*43			*44			*45			*46			*47			*48			*49			*50		
		X1	Y1	Z1	X2	Y2	Z2	X3	Y3	Z3	X4	Y4	Z4	X5	Y5	Z5	X6	Y6	Z6	X7	Y7	Z7	X8	Y8	Z8	X9	Y9	Z9	X10	Y10	Z10	X11	Y11	Z11	X12	Y12	Z12	X13	Y13	Z13	X14	Y14	Z14	X15	Y15	Z15	X16	Y16	Z16	X17	Y17	Z17	X18	Y18	Z18	X19	Y19	Z19	X20	Y20	Z20	X21	Y21	Z21	X22	Y22	Z22	X23	Y23	Z23	X24	Y24	Z24	X25	Y25	Z25	X26	Y26	Z26	X27	Y27	Z27	X28	Y28	Z28	X29	Y29	Z29	X30	Y30	Z30	X31	Y31	Z31	X32	Y32	Z32	X33	Y33	Z33	X34	Y34	Z34	X35	Y35	Z35	X36	Y36	Z36	X37	Y37	Z37	X38	Y38	Z38	X39	Y39	Z39	X40	Y40	Z40	X41	Y41	Z41	X42	Y42	Z42	X43	Y43	Z43	X44	Y44	Z44	X45	Y45	Z45	X46	Y46	Z46	X47	Y47	Z47	X48	Y48	Z48	X49	Y49	Z49	X50	Y50	Z50	X51	Y51	Z51
																																																																																																																																																										
177	1.76	-200.23268	1674.11572	-1480.55554	-210.96465	1653.35742	-1350.33545	-329.70816	1613.03198	-1496.38403	-339.97891	1598.16724	-1368.32166	-328.44437	1454.53064	-1445.14307	-355.67664	1124.72644	-1437.48047	-218.11726	1378.55396	-1441.76025	-175.93762	1202.91992	-1452.33557	-398.47031	1280.7915	-1366.93201	-265.61957	1412.42725	-1603.11841	-232.85104	1212.35413	-1672.01855	-210.94162	1100.7052	-1680.18091	-113.85255	985.55359	-1678.18823	-6.91325	935.29034	-1613.83203	-47.76297	889.5592	-1649.58069	33.02109	851.37128	-1635.18323	-263.98245	1407.62927	-1281.20557	-307.34198	1209.08691	-1195.31921	-299.00275	1086.83862	-1184.64844	-281.11111	967.73315	-1168.33276	-216.72328	831.34882	-1201.69666	-270.65939	830.47632	-1161.13831	-230.8766	755.75604	-1160.5343	-181.22142	964.65717	-1554.56396	-165.47037	977.00787	-1333.61926	-337.22879	990.45508	-1516.12732	-319.07532	1000.46075	-1348.95801	-255.84067	644.88525	-1605.19275	-256.37573	480.76007	-1587.97644	-440.224	308.09155	-1570.36536	-556.56329	184.01752	-1528.45862	-588.45721	201.76732	-1478.35352	-490.87616	53.42452	-1532.15625	-187.66344	646.99231	-1268.75818	-169.14374	523.87494	-1295.21973	-183.60274	257.26181	-1290.82178	-176.07957	71.26371	-1336.13623	-212.90851	45.77587	-1382.4928	-21.34168	41.5193	-1341.20142	-307.2933	1702.70337	-1427.88867	NaN	NaN	NaN	NaN	NaN	NaN	NaN	NaN	NaN	NaN	NaN	NaN	NaN	NaN	NaN	NaN	NaN	NaN	NaN	NaN	NaN	NaN	NaN	NaN	NaN	NaN	NaN	NaN	NaN	NaN	NaN	NaN	NaN
178	1.77	-193.88615	1674.49316	-1479.29248	-204.21614	1653.84436	-1349.05371	-323.20236	1613.31372	-1494.70386	-333.52206	1598.36963	-1366.77722	-321.96881	1455.03015	-1443.4071	-349.35693	1125.08398	-1435.89453	-211.6907	1378.87964	-1440.33276	-169.74615	1203.20886	-1450.93518	-392.12921	1281.3252	-1364.91431	-259.55093	1412.48303	-1601.76038	-228.37289	1211.98499	-1670.70386	-207.03374	1100.25745	-1679.00098	-110.66712	984.57556	-1677.68701	-3.61406	933.6734	-1614.06641	-44.90752	888.19421	-1649.68396	35.77855	849.68536	-1635.92297	-256.99362	1407.97668	-1279.60291	-299.73859	1209.41785	-1193.51001	-291.20181	1087.19702	-1182.71948	-272.84839	968.08936	-1166.53223	-207.89529	832.07495	-1200.24292	-262.08606	830.85675	-1159.24536	-221.92155	756.33032	-1158.80579	-175.26099	965.08081	-1553.46436	-159.20837	977.36523	-1332.21545	-331.07764	990.57538	-1515.00012	-312.94879	1000.77917	-1347.80737	-245.98207	644.99597	-1604.1731	-243.4751	481.11734	-1587.09412	-428.4845	311.41409	-1569.19275	-547.0896	189.86162	-1527.01526	-577.71411	208.28625	-1476.45544	-485.6492	56.83647	-1531.67786	-183.22984	647.16302	-1267.63232	-165.52155	523.80005	-1293.88025	-182.00522	257.17227	-1289.99622	-175.92703	71.17168	-1335.93665	-212.96254	45.77121	-1382.34412	-21.36418	41.36277	-1341.23999	-300.78116	1703.02417	-1426.43359	NaN	NaN	NaN	NaN	NaN	NaN	NaN	NaN	NaN	NaN	NaN	NaN	NaN	NaN	NaN	NaN	NaN	NaN	NaN	NaN	NaN	NaN	NaN	NaN	NaN	NaN	NaN	NaN	NaN	NaN	NaN	NaN	NaN
179	1.78	-187.45155	1674.90833	-1478.16248	-197.46442	1654.27893	-1347.87683	-316.80801	1613.67273	-1493.21777	-326.55429	1598.81128	-1365.19824	-315.43823	1455.50574	-1441.73853	-343.15369	1125.52625	-1434.38147	-205.38289	1379.20532	-1438.94556	-163.56276	1203.57825	-1449.59802	-385.78464	1281.92468	-1363.01245	-253.57603	1412.58594	-1600.45471	-224.01488	1211.70227	-1669.44324	-203.3069	1099.87939	-1677.81152	-107.60751	983.50958	-1677.54175	-0.68003	931.72308	-1614.4491	-42.49876	886.6535	-1650.00305	38.03611	847.63263	-1636.88745	-250.146	1408.38977	-1278.10388	-292.45816	1209.8623	-1191.47095	-283.48071	1087.5575	-1180.86902	-264.69272	968.58545	-1164.68677	-199.36301	832.78802	-1198.47351	-253.13231	831.45441	-1157.53503	-212.90852	757.16803	-1157.13086	-169.05571	965.60156	-1552.25647	-153.14078	977.74341	-1330.89807	-325.02951	990.81873	-1513.93201	-306.77795	1001.05798	-1346.66357	-236.23335	645.22192	-1603.15234	-230.74112	481.63583	-1586.07068	-416.69034	314.44315	-1567.97388	-537.24908	195.1651	-1525.53577	-566.7337	213.96936	-1474.52991	-479.40607	60.76939	-1531.93445	-178.52698	647.31134	-1266.68408	-162.25493	523.66364	-1292.71912	-180.48624	257.15723	-1289.3866	-175.76501	71.13873	-1335.77625	-213.01503	45.79447	-1382.13647	-21.39988	41.22803	-1341.37964	-294.27286	1703.42639	-1424.9884	NaN	NaN	NaN	NaN	NaN	NaN	NaN	NaN	NaN	NaN	NaN	NaN	NaN	NaN	NaN	NaN	NaN	NaN	NaN	NaN	NaN	NaN	NaN	NaN	NaN	NaN	NaN	NaN	NaN	NaN	NaN	NaN	NaN
180	1.79	-180.96236	1675.2876	-1477.15906	-190.65335	1654.72754	-1346.79919	-310.58133	1614.08862	-1491.85144	-319.77658	1599.40613	-1363.71069	-309.10251	1455.98987	-1440.15894	-337.01276	1125.98755	-1432.9303	-199.0779	1379.54163	-1437.65369	-157.56578	1203.91064	-1448.26025	-379.47922	1282.52112	-1361.20972	-247.72504	1412.80237	-1599.20959	-219.72433	1211.51416	-1668.16272	-199.66953	1099.56311	-1676.61499	-104.92024	982.38159	-1677.21948	1.94302	929.50336	-1614.97314	-40.5516	884.91083	-1650.43958	39.82354	845.245	-1638.06262	-243.43784	1408.83472	-1276.6571	-284.75504	1210.11316	-1190.18542	-275.74261	1087.9635	-1179.12	-256.41132	969.09235	-1162.97217	-191.00092	833.51666	-1197.07996	-244.35466	832.05511	-1155.797	-203.66019	757.93475	-1155.52124	-162.91797	966.10254	-1551.08826	-147.0943	978.13715	-1329.74988	-318.98715	991.13269	-1512.88635	-300.84558	1001.53772	-1345.57141	-226.55025	645.54602	-1602.04333	-218.22871	482.29166	-1584.77844	-404.64758	317.11078	-1566.65735	-526.94043	199.614	-1524.01331	-555.80389	218.28656	-1472.60254	-470.84662	64.38726	-1532.38965	-173.89238	647.52185	-1265.85449	-159.01213	523.54407	-1291.81165	-178.98843	257.21732	-1289.00647	-175.47797	71.09591	-1335.7644	-213.00653	45.84689	-1382.06384	-21.50424	41.02491	-1341.54871	-287.67163	1703.88525	-1423.73743	NaN	NaN	NaN	NaN	NaN	NaN	NaN	NaN	NaN	NaN	NaN	NaN	NaN	NaN	NaN	NaN	NaN	NaN	NaN	NaN	NaN	NaN	NaN	NaN	NaN	NaN	NaN	NaN	NaN	NaN	NaN	NaN	NaN
181	1.8	-174.4919	1675.62305	-1476.24243	-183.899	1655.14758	-1345.84753	-304.14655	1614.5321	-1490.49829	-313.31934	1599.94775	-1362.30774	-302.83212	1456.46802	-1438.79468	-331.0094	1126.49158	-1431.61804	-192.87817	1379.88501	-1436.4541	-151.54948	1204.26599	-1447.05676	-373.26059	1283.10596	-1359.53943	-241.97989	1413.04248	-1597.98218	-215.43553	1211.41162	-1666.90039	-196.07602	1099.42786	-1675.42554	-102.68856	981.28693	-1676.75427	4.182	927.01471	-1615.6095	-38.99345	883.02155	-1651.03101	41.02818	842.57239	-1639.41638	-236.85461	1409.30359	-1275.33472	-277.517	1210.64392	-1188.48535	-268.07785	1088.45776	-1177.4729	-248.2641	969.67206	-1161.37805	-182.02979	834.4704	-1195.49634	-235.4977	832.68677	-1154.17493	-194.60236	758.76245	-1153.88867	-156.98738	966.50793	-1549.94702	-141.10321	978.56842	-1328.6438	-313.07147	991.54468	-1511.81433	-294.84854	1001.91266	-1344.45459	-216.94334	645.9621	-1600.98511	-205.99153	482.98734	-1583.51062	-392.74435	319.44647	-1565.34143	-516.10132	203.06807	-1522.59216	-544.86395	221.02448	-1470.8064	-459.26569	67.93248	-1532.40967	-169.59465	647.69244	-1265.16577	-155.91179	523.36011	-1291.01953	-177.49063	257.151	-1288.89905	-175.21573	71.10252	-1335.896	-213.01291	45.93013	-1382.07056	-21.54401	40.83263	-1341.80957	-281.05722	1704.37256	-1422.54211	NaN	NaN	NaN	NaN	NaN	NaN	NaN	NaN	NaN	NaN	NaN	NaN	NaN	NaN	NaN	NaN	NaN	NaN	NaN	NaN	NaN	NaN	NaN	NaN	NaN	NaN	NaN	NaN	NaN	NaN	NaN	NaN	NaN
182	1.81	-168.06863	1675.89209	-1475.33789	-177.06039	1655.58582	-1344.95605	-297.98578	1615.02173	-1489.26746	-307.13077	1600.41003	-1361.04004	-296.63907	1456.84229	-1437.29309	-325.00009	1127.00281	-1430.23315	-186.71649	1380.24011	-1435.27429	-145.61913	1204.55432	-1445.89417	-366.97473	1283.61121	-1357.96375	-236.37228	1413.38757	-1596.80212	-211.175	1211.48792	-1665.6731	-192.62555	1099.38831	-1674.19067	-100.505	980.04688	-1676.81262	6.02116	924.2865	-1616.42163	-37.88934	880.98273	-1651.85132	41.77926	839.5863	-1641.00122	-230.39566	1409.81494	-1274.08032	-270.05057	1211.05798	-1187.34009	-260.52295	1089.00903	-1175.93774	-240.08292	970.32935	-1159.87061	-173.64767	835.3197	-1194.14148	-226.76897	833.44519	-1152.58057	-185.36597	759.72906	-1152.36401	-151.05902	967.06781	-1548.80359	-135.17984	978.93939	-1327.6167	-307.16583	992.01453	-1510.77832	-288.96097	1002.32666	-1343.26672	-207.50555	646.44305	-1599.93506	-194.13744	483.84494	-1582.10913	-380.84604	321.37292	-1564.05786	-504.3638	205.28987	-1521.2981	-533.68732	222.61757	-1469.55835	-446.33896	71.34204	-1533.1405	-165.80605	647.51056	-1264.68567	-152.96353	523.14142	-1290.28979	-176.20876	257.12228	-1288.93115	-174.97307	71.16479	-1336.06836	-212.96426	45.98468	-1382.14966	-21.58146	40.73441	-1342.07617	-274.44864	1704.86975	-1421.41248	NaN	NaN	NaN	NaN	NaN	NaN	NaN	NaN	NaN	NaN	NaN	NaN	NaN	NaN	NaN	NaN	NaN	NaN	NaN	NaN	NaN	NaN	NaN	NaN	NaN	NaN	NaN	NaN	NaN	NaN	NaN	NaN	NaN
183	1.82	-161.59875	1676.26538	-1474.54456	-170.40666	1656.05383	-1344.08521	-291.72098	1615.54419	-1488.06421	-300.02866	1601.09741	-1359.78442	-290.50494	1457.35767	-1436.06384	-319.09698	1127.5166	-1428.88843	-180.57262	1380.63843	-1434.24902	-139.79495	1204.89014	-1444.79065	-360.8284	1284.13062	-1356.52563	-230.85574	1413.80261	-1595.703	-206.9705	1211.61621	-1664.47644	-189.16895	1099.46484	-1673.05151	-98.64664	978.91516	-1676.77148	7.55145	921.29926	-1617.38892	-37.30699	878.84119	-1652.73035	41.92355	836.35309	-1642.75085	-223.98798	1410.40002	-1272.9425	-262.98911	1211.59119	-1185.92529	-253.10368	1089.64746	-1174.38025	-232.03601	971.06787	-1158.33875	-165.12082	836.43048	-1192.71179	-218.00879	834.24268	-1151.02637	-176.19942	760.79321	-1150.89661	-144.99232	967.77576	-1547.71484	-129.23936	979.3222	-1326.58691	-301.45032	992.51001	-1509.60852	-283.06796	1002.75049	-1342.06738	-198.1795	647.04047	-1598.92102	-182.43596	484.84702	-1580.46948	-368.89227	323.1506	-1562.86902	-491.99255	206.43805	-1520.22607	-521.61255	222.8295	-1468.11438	-431.20856	74.05689	-1533.36267	-161.82649	647.41895	-1264.23889	-150.06053	522.89063	-1289.75549	-174.92339	257.09857	-1289.0675	-174.77118	71.1968	-1336.27124	-212.95917	46.02252	-1382.24146	-21.60054	40.58575	-1342.39795	-267.87622	1705.37939	-1420.33972	NaN	NaN	NaN	NaN	NaN	NaN	NaN	NaN	NaN	NaN	NaN	NaN	NaN	NaN	NaN	NaN	NaN	NaN	NaN	NaN	NaN	NaN	NaN	NaN	NaN	NaN	NaN	NaN	NaN	NaN	NaN	NaN	NaN
